<?xml version="1.0" encoding="UTF-8"?>
<svg id="Layer_2" data-name="Layer 2" xmlns="http://www.w3.org/2000/svg" xmlns:xlink="http://www.w3.org/1999/xlink" viewBox="0 0 64.27 11.25">
  <defs>
    <style>
      .cls-1 {
        fill: url(#linear-gradient-2);
      }

      .cls-2 {
        fill: #fff;
      }

      .cls-3 {
        fill: url(#linear-gradient-4);
      }

      .cls-4 {
        fill: url(#linear-gradient-3);
      }

      .cls-5 {
        fill: url(#linear-gradient);
      }
    </style>
    <linearGradient id="linear-gradient" x1="61.63" y1="1.49" x2="64.27" y2="1.49" gradientUnits="userSpaceOnUse">
      <stop offset="0" stop-color="#77c043"/>
      <stop offset=".09" stop-color="#68b742"/>
      <stop offset=".36" stop-color="#409e40"/>
      <stop offset=".62" stop-color="#238c3f"/>
      <stop offset=".84" stop-color="#12813f"/>
      <stop offset="1" stop-color="#0c7e3f"/>
    </linearGradient>
    <linearGradient id="linear-gradient-2" x1="61.16" y1="6.48" x2="64.26" y2="6.48" xlink:href="#linear-gradient"/>
    <linearGradient id="linear-gradient-3" x1="32.15" y1="4.51" x2="38.42" y2="4.51" xlink:href="#linear-gradient"/>
    <linearGradient id="linear-gradient-4" x1="0" y1="4.51" x2="2.47" y2="4.51" xlink:href="#linear-gradient"/>
  </defs>
  <g id="Layer_1-2" data-name="Layer 1">
    <g>
      <path class="cls-2" d="M9.11,2.18c-.29-.62-.7-1.1-1.23-1.45-.53-.34-1.15-.51-1.87-.51h-2.58v1.98h2.57c.48,0,.84.18,1.08.54.25.36.37.89.37,1.61v.33c0,.72-.12,1.26-.36,1.62-.24.35-.6.53-1.09.53h-2.57v1.98h2.58c.72,0,1.34-.17,1.87-.51.53-.34.94-.82,1.23-1.45.29-.62.44-1.35.44-2.2v-.27c0-.85-.15-1.58-.44-2.2Z"/>
      <path class="cls-2" d="M16.65,5.73c.01-.15.02-.31.02-.49,0-.6-.12-1.12-.37-1.56-.24-.45-.58-.79-1.02-1.04-.45-.24-.96-.36-1.56-.36-.65,0-1.23.14-1.72.42-.5.27-.89.66-1.16,1.16-.28.5-.42,1.08-.42,1.75v.1c0,.67.14,1.25.41,1.75s.65.88,1.14,1.15c.49.28,1.07.41,1.74.41s1.3-.15,1.81-.47c.51-.31.88-.74,1.11-1.29l-1.77-.67c-.22.54-.6.81-1.15.81-.42,0-.75-.16-.99-.46-.16-.21-.27-.49-.32-.82h4.19c.03-.11.05-.24.06-.39ZM12.44,5c.05-.26.16-.48.3-.66.24-.31.58-.47,1-.47.35,0,.61.11.8.31.18.2.27.47.28.82h-2.38Z"/>
      <path class="cls-2" d="M23.85,5.73c.02-.15.02-.31.02-.49,0-.6-.12-1.12-.36-1.56-.25-.45-.59-.79-1.03-1.04-.45-.24-.96-.36-1.55-.36-.66,0-1.24.14-1.73.42-.5.27-.89.66-1.16,1.16-.28.5-.42,1.08-.42,1.75v.1c0,.67.14,1.25.41,1.75.27.5.65.88,1.14,1.15.49.28,1.07.41,1.74.41s1.3-.15,1.81-.47c.51-.31.88-.74,1.11-1.29l-1.77-.67c-.21.54-.6.81-1.15.81-.42,0-.75-.16-.99-.46-.16-.21-.27-.49-.32-.82h4.19c.03-.11.05-.24.06-.39ZM19.64,5c.05-.26.16-.48.3-.66.24-.31.58-.47,1-.47.35,0,.61.11.8.31.18.2.27.47.28.82h-2.38Z"/>
      <path class="cls-2" d="M30.82,3.87c-.19-.51-.45-.9-.79-1.17-.34-.28-.73-.42-1.19-.42-.36,0-.7.1-1.01.29s-.56.47-.74.82h-.06v-.9h-2v8.76h2.05v-3.3h.06c.21.36.46.63.75.81.28.17.61.26.98.26.45,0,.84-.14,1.17-.41.34-.28.6-.67.78-1.17.19-.5.28-1.09.28-1.76v-.06c0-.67-.09-1.25-.28-1.75ZM29.05,5.72c0,.53-.09.93-.26,1.21-.17.28-.41.42-.73.42s-.57-.15-.76-.45c-.19-.31-.28-.71-.28-1.22v-.07c0-.5.1-.91.29-1.21.19-.3.44-.45.75-.45s.57.14.74.42c.16.28.25.68.25,1.21v.14Z"/>
      <path class="cls-2" d="M44.26,2.18c-.29-.62-.7-1.1-1.23-1.45-.53-.34-1.15-.51-1.87-.51h-2.58v1.98h2.57c.48,0,.84.18,1.08.54.25.36.37.89.37,1.61v.33c0,.72-.12,1.26-.36,1.62-.24.35-.61.53-1.09.53h-2.57v1.98h2.58c.72,0,1.34-.17,1.87-.51.53-.34.94-.82,1.23-1.45.29-.62.44-1.35.44-2.2v-.27c0-.85-.15-1.58-.44-2.2Z"/>
      <path class="cls-2" d="M51.5,4.83c-.33-.42-.84-.77-1.53-1.04l-1.16-.45c-.31-.12-.52-.24-.65-.35-.13-.12-.19-.27-.19-.43v-.03c0-.2.08-.36.24-.47.17-.12.39-.18.67-.18.64,0,1.03.29,1.18.86l1.91-.51c-.21-.73-.58-1.28-1.11-1.66-.53-.38-1.19-.57-1.99-.57-.59,0-1.11.11-1.55.33-.45.22-.8.53-1.05.92-.25.39-.38.84-.38,1.36v.02c0,1.12.61,1.91,1.83,2.37l1.16.45c.38.15.65.3.81.44.15.14.23.31.23.51v.02c0,.22-.08.4-.25.52-.17.13-.41.19-.72.19-.43,0-.8-.12-1.08-.35-.29-.23-.48-.55-.56-.97l-1.92.47c.12.56.35,1.04.68,1.45.33.41.74.72,1.23.95.49.22,1.04.33,1.65.33s1.14-.1,1.6-.32c.45-.21.81-.51,1.06-.9.26-.38.38-.83.38-1.34v-.05c0-.63-.16-1.15-.49-1.57Z"/>
      <polygon class="cls-2" points="59.52 8.81 57.38 8.81 57.04 7.34 56.66 5.75 56.22 3.86 55.92 2.49 55.88 2.49 55.62 3.86 55.17 5.75 54.79 7.34 54.44 8.81 52.34 8.81 55.01 .22 56.87 .22 59.52 8.81"/>
      <path class="cls-5" d="M63.89.58c-.25-.25-.56-.37-.94-.37s-.68.12-.94.37c-.25.25-.38.55-.38.91s.13.66.39.9c.26.25.57.37.93.37.38,0,.69-.12.94-.37.26-.24.38-.54.38-.9s-.12-.66-.38-.91Z"/>
      <path class="cls-1" d="M64.26,5.45c.05,1.1-1.42,2.46-1.98,3.35l-1.12-.79,1.3-1.6c-2.63-1.31,1.7-3.81,1.8-.96Z"/>
      <path class="cls-4" d="M32.15,8.8L36.33.22h2.1l-4.17,8.58h-2.1Z"/>
      <path class="cls-3" d="M1.24,8.81c-.34,0-.64-.12-.88-.36-.24-.24-.36-.53-.36-.88s.12-.64.36-.87.53-.36.88-.36.64.12.88.36.36.53.36.87-.12.64-.36.88c-.24.24-.53.36-.88.36ZM.3,5.1L.05.22h2.38l-.26,4.88H.3Z"/>
    </g>
  </g>
</svg>