<?xml version="1.0" encoding="UTF-8"?>
<svg id="Layer_2" data-name="Layer 2" xmlns="http://www.w3.org/2000/svg" xmlns:xlink="http://www.w3.org/1999/xlink" viewBox="0 0 18.47 18.47">
  <defs>
    <style>
      .cls-1 {
        fill: #fff;
      }

      .cls-2 {
        fill: url(#linear-gradient);
      }
    </style>
    <linearGradient id="linear-gradient" x1="3.22" y1="9.23" x2="5.69" y2="9.23" gradientUnits="userSpaceOnUse">
      <stop offset="0" stop-color="#77c043"/>
      <stop offset=".09" stop-color="#68b742"/>
      <stop offset=".36" stop-color="#409e40"/>
      <stop offset=".62" stop-color="#238c3f"/>
      <stop offset=".84" stop-color="#12813f"/>
      <stop offset="1" stop-color="#0c7e3f"/>
    </linearGradient>
  </defs>
  <g id="Layer_1-2" data-name="Layer 1">
    <g>
      <polygon points="5.65 4.94 5.39 9.83 3.52 9.83 3.27 4.94 5.65 4.94"/>
      <path d="M5.69,12.3c0,.11-.01.21-.04.31-.05.21-.16.4-.32.56-.24.24-.53.36-.87.36s-.64-.12-.88-.36-.36-.53-.36-.87.12-.64.36-.88c.24-.23.53-.35.88-.35s.64.12.88.35c.15.16.26.35.31.56.03.1.04.21.04.32Z"/>
      <path d="M12.77,9.1v.27c0,.76-.12,1.43-.36,2.01-.02.06-.05.13-.08.19-.29.63-.7,1.11-1.23,1.45-.53.34-1.15.51-1.87.51h-2.58v-1.98h2.57c.49,0,.85-.18,1.09-.53.24-.36.36-.9.36-1.62v-.33c0-.72-.12-1.25-.37-1.61-.24-.36-.6-.54-1.08-.54h-2.57v-1.98h2.58c.72,0,1.34.17,1.87.51.53.35.94.83,1.23,1.45.03.07.06.14.08.21.24.57.36,1.23.36,1.99Z"/>
      <path d="M15.25,9.1v.27c0,.85-.15,1.58-.44,2.2-.29.63-.7,1.11-1.23,1.45-.43.27-.91.44-1.46.49.46-.41.84-.92,1.11-1.52.36-.75.54-1.63.54-2.62v-.27c0-.98-.18-1.86-.54-2.62-.28-.6-.66-1.11-1.14-1.52.56.05,1.06.21,1.49.49.53.35.94.83,1.23,1.45.29.62.44,1.35.44,2.2Z"/>
      <g>
        <path class="cls-2" d="M3.27,4.94l.25,4.89h1.87l.26-4.89h-2.38ZM5.65,11.98c-.05-.21-.16-.4-.31-.56-.24-.23-.53-.35-.88-.35s-.64.12-.88.35c-.24.24-.36.53-.36.88s.12.63.36.87.53.36.88.36.63-.12.87-.36c.16-.16.27-.35.32-.56.03-.1.04-.2.04-.31s-.01-.22-.04-.32Z"/>
        <path class="cls-1" d="M15.25,9.1v.27c0,.85-.15,1.58-.44,2.2-.29.63-.7,1.11-1.23,1.45-.43.27-.91.44-1.46.49.46-.41.84-.92,1.11-1.52.36-.75.54-1.63.54-2.62v-.27c0-.98-.18-1.86-.54-2.62-.28-.6-.66-1.11-1.14-1.52.56.05,1.06.21,1.49.49.53.35.94.83,1.23,1.45.29.62.44,1.35.44,2.2Z"/>
        <path class="cls-1" d="M12.77,9.1v.27c0,.76-.12,1.43-.36,2.01-.02.06-.05.13-.08.19-.29.63-.7,1.11-1.23,1.45-.53.34-1.15.51-1.87.51h-2.58v-1.98h2.57c.49,0,.85-.18,1.09-.53.24-.36.36-.9.36-1.62v-.33c0-.72-.12-1.25-.37-1.61-.24-.36-.6-.54-1.08-.54h-2.57v-1.98h2.58c.72,0,1.34.17,1.87.51.53.35.94.83,1.23,1.45.03.07.06.14.08.21.24.57.36,1.23.36,1.99Z"/>
      </g>
      <path d="M5.65,11.98v.63c.03-.1.04-.2.04-.31s-.01-.22-.04-.32Z"/>
      <path d="M14.03,0H4.44C1.99,0,0,1.99,0,4.44v9.6c0,2.45,1.99,4.43,4.44,4.43h9.59c2.45,0,4.44-1.98,4.44-4.43V4.44c0-2.45-1.99-4.44-4.44-4.44ZM5.65,4.94l-.26,4.89h-1.87l-.25-4.89h2.38ZM5.65,12.61c-.05.21-.16.4-.32.56-.24.24-.53.36-.87.36s-.64-.12-.88-.36-.36-.53-.36-.87.12-.64.36-.88c.24-.23.53-.35.88-.35s.64.12.88.35c.15.16.26.35.31.56.03.1.04.21.04.32s-.01.21-.04.31ZM11.1,13.02c-.53.34-1.15.51-1.87.51h-2.58v-1.98h2.57c.49,0,.85-.18,1.09-.53.24-.36.36-.9.36-1.62v-.33c0-.72-.12-1.25-.37-1.61-.24-.36-.6-.54-1.08-.54h-2.57v-1.98h2.58c.72,0,1.34.17,1.87.51.53.35.94.83,1.23,1.45.03.07.06.14.08.21.24.57.36,1.23.36,1.99v.27c0,.76-.12,1.43-.36,2.01-.02.06-.05.13-.08.19-.29.63-.7,1.11-1.23,1.45ZM15.25,9.37c0,.85-.15,1.58-.44,2.2-.29.63-.7,1.11-1.23,1.45-.43.27-.91.44-1.46.49.46-.41.84-.92,1.11-1.52.36-.75.54-1.63.54-2.62v-.27c0-.98-.18-1.86-.54-2.62-.28-.6-.66-1.11-1.14-1.52.56.05,1.06.21,1.49.49.53.35.94.83,1.23,1.45.29.62.44,1.35.44,2.2v.27Z"/>
    </g>
  </g>
</svg>